<svg viewBox="-31 0 512 512.00046" xmlns="http://www.w3.org/2000/svg" fill="#ee761c">
  <path d="m52.496094 153.011719c-7.175782-4.144531-16.347656-1.683594-20.488282 5.488281-4.144531 7.175781-1.683593 16.347656 5.488282 20.488281 7.171875 4.144531 16.347656 1.683594 20.488281-5.488281 4.144531-7.175781 1.683594-16.347656-5.488281-20.488281zm0 0" />
  <path d="m434.996094 121.003906h-15v-15c0-8.289062-6.707032-15-15-15-8.289063 0-15 6.710938-15 15v15h-15c-8.289063 0-15 6.710938-15 15 0 8.292969 6.710937 15 15 15h15v15c0 8.289063 6.710937 15 15 15 8.292968 0 15-6.710937 15-15v-15h15c8.289062 0 15-6.707031 15-15 0-8.289062-6.710938-15-15-15zm0 0" />
  <path d="m30 75.003906c0 8.292969 6.707031 15 15 15 8.289062 0 15-6.707031 15-15v-15h15c8.289062 0 15-6.707031 15-15 0-8.289062-6.710938-15-15-15h-15v-15c0-8.289062-6.710938-14.99999975-15-14.99999975-8.292969 0-15 6.71093775-15 14.99999975v15h-15c-8.289062 0-15 6.710938-15 15 0 8.292969 6.710938 15 15 15h15zm0 0" />
  <path d="m124.746094 28.042969c14.277344 28.5625 22.207031 60.09375 24.203125 91.960937h152.101562c1.992188-31.863281 9.921875-63.398437 24.199219-91.960937l3.164062-6.328125c2.886719-5.769532 1.757813-12.742188-2.8125-17.3125-4.554687-4.570313-11.527343-5.699219-17.3125-2.8125l-50.332031 25.164062-22.355469-22.351562c-5.859374-5.859375-15.351562-5.859375-21.210937 0l-22.351563 22.351562-50.332031-25.167968c-5.800781-2.882813-12.726562-1.769532-17.3125 2.816406-4.570312 4.566406-5.699219 11.539062-2.8125 17.3125zm0 0" />
  <path d="m316.835938 151.003906h-183.679688l-58.566406 70.882813c-28.753906 34.820312-44.589844 79.894531-44.589844 125.117187 0 100.234375 76.539062 164.996094 194.996094 164.996094 118.460937 0 195-64.761719 195-164.996094 0-45.222656-15.835938-89.296875-44.605469-124.117187zm-92 155.394532c24.816406 0 45 20.183593 45 45 0 19.46875-12.5 35.925781-29.839844 42.183593v13.421875c0 8.289063-6.707032 15-15 15-8.289063 0-14.996094-6.710937-14.996094-15v-13.320312c-17.507812-6.167969-30.164062-22.699219-30.164062-42.285156 0-8.292969 6.710937-15 15-15 8.292968 0 15 6.707031 15 15 0 8.277343 6.726562 15 15 15 8.277343 0 15-6.722657 15-15 0-8.277344-6.722657-15-15-15-24.8125 0-45-20.1875-45-45 0-19.589844 12.65625-36.117188 30.164062-42.285157v-22.109375c0-8.289062 6.707031-15 14.996094-15 8.292968 0 15 6.710938 15 15v22.210938c17.339844 6.257812 29.839844 22.714844 29.839844 42.183594 0 8.292968-6.707032 15-15 15-8.289063 0-15-6.707032-15-15 0-8.273438-6.722657-15-15-15-8.273438 0-15 6.726562-15 15 0 8.277343 6.722656 15 15 15zm0 0" />
</svg>